<svg xmlns="http://www.w3.org/2000/svg" viewBox="0 0 140 140" width="512" height="512">
  <defs>
    <filter id="glow" x="-40%" y="-40%" width="180%" height="180%">
      <feGaussianBlur in="SourceGraphic" stdDeviation="6" result="blur"/>
      <feColorMatrix in="blur" type="matrix" result="purple-blur"
        values="1 0 0 0 0
                0 0.5 0 0 0
                0 0 1.2 0 0
                0 0 0 0.6 0"/>
      <feMerge>
        <feMergeNode in="purple-blur"/>
        <feMergeNode in="SourceGraphic"/>
      </feMerge>
    </filter>
  </defs>

  <rect width="140" height="140" fill="#0e0e0e"/>

  <g transform="translate(20, 20)" filter="url(#glow)">
    <!-- Behind ribbon -->
    <path
      d="M 29,60 A 28,28 0 0,0 40,16 L 44,24 A 19,19 0 0,1 35,54 Z"
      fill="#6450a5"
    />
    <!-- Main ring + tail -->
    <path
      d="M 36,18 A 28,28 0 1,1 26,56 Q 21,64 20,70 Q 28,60 34,52 A 19,19 0 1,0 40,26 Z"
      fill="#8a6ab8"
    />
    <!-- Outer highlight -->
    <path
      d="M 36,18 A 28,28 0 1,1 26,56 Q 21,64 20,70 L 29,54 A 24,24 0 1,0 38,21 Z"
      fill="#b88ce5"
    />
  </g>
</svg>